<svg xmlns="http://www.w3.org/2000/svg" viewBox="0 0 389.24 389.33">
    <defs>
        <style>.cls-1,.cls-3,.cls-4,.cls-5,.cls-6,.cls-7{fill:#0898de;}.cls-2,.cls-3,.cls-4,.cls-5,.cls-6,.cls-7{isolation:isolate;}.cls-3,.cls-4,.cls-5,.cls-6,
.cls-7{font-size:64.02px;font-family:SVN-Avengeance;}.cls-3{letter-spacing:0.19em;}.cls-4{letter-spacing:0.17em;}
.cls-5{letter-spacing:0.17em;}.cls-6{letter-spacing:0.13em;}.cls-7{letter-spacing:0.13em;}</style>
    </defs>
    <title>docshare</title>
    <g id="Layer_2" data-name="Layer 2">
        <g id="Layer_1-2" data-name="Layer 1">
            <g id="Layer_2-2" data-name="Layer 2">
                <g id="Layer_1-2-2" data-name="Layer 1-2">
                    <path class="cls-1" d="M104.17,150.85H0l8.1-46H112.28ZM268.05,81.91H147.74l-9.36,46H258.69Zm22.3-38.29c7.5,2.32,36.93,12.39,49,40.51A65.51,65.51,0,0,1,344.5,109C346,152.76,314,184.44,310,188.3a115.11,115.11,0,0,1-52.79,28.06l-107.75,1.87q3.45-19.83,6.88-39.68h-96q-3.48,20.79-7,41.58h54.09l-10.5,41.55,150.06-.09c16.56-2.18,51-9.17,82.72-36a154.65,154.65,0,0,0,31.66-36.9,129.94,129.94,0,0,0,25-53,126.51,126.51,0,0,0,2-42.33c-1.54-12.14-5-39.32-26.81-62.81C340.23,7.67,314,1.72,304.05,0H184.18q-2.69,11.36-5.36,22.55l-76.6.26Q98.79,44.41,95.33,66l118.34-.19q2.43-11.14,4.85-22.28Z"/>
                </g>
            </g>
        </g>
    </g>
</svg>